# xmcd
#
# Track frame offsets: 
#        150
#        22233
#        43738
#        71147
#        90548
#        109746
#        130331
#        144553
#        156096
#        178788
#        198258
#
# Disc length: 2939 seconds
#
# Revision: 0
# Processed by: cddbd v1.5.2PL0 Copyright (c) Steve Scherf et al.
# Submitted via: ExactAudioCopy v1.2
#
DISCID=9f0b790b
DTITLE=Greg Highsmith - Least Likely
DYEAR=2006
DGENRE=Country
TTITLE0=Drinking from My Saucer
TTITLE1=Believe
TTITLE2=Anchor Holds, The
TTITLE3=Here I Go Again
TTITLE4=Who Am I
TTITLE5=When I Get Where I'm Going
TTITLE6=Mission Temple Fireworks Stand
TTITLE7=Devil's in the Phonebooth
TTITLE8=Knowing You'll Be There
TTITLE9=Halfway Home Cafe
TTITLE10=Go Rest High on that Mountain
EXTD=
EXTT0=
EXTT1=
EXTT2=
EXTT3=
EXTT4=
EXTT5=
EXTT6=
EXTT7=
EXTT8=
EXTT9=
EXTT10=
PLAYORDER=
